# xmcd
#
# Track frame offsets:
#	182
#	13677
#	26970
#	44977
#	57930
#	73215
#	88160
#	104215
#	116962
#	130340
#	143190
#	159247
#	174940
#	187375
#	198207
#	214250
#	229837
#	245390
#	257175
#	273792
#	285682
#	296867
#	309625
#	326882
#
# Disc length: 4520 seconds
#
# Revision: 4
# Processed by: cddbd v1.5.2PL0 Copyright (c) Steve Scherf et al.
# Submitted via: audiograbber 1.80.04
#
DISCID=8e11a618
DTITLE=Roberta Miranda - Dose Dupla
DYEAR=0
DGENRE=Sertanejo
TTITLE0=São Tantas Coisas
TTITLE1=Chuva de Amor
TTITLE2=Benvinda
TTITLE3=Na Hora "H"
TTITLE4=Maria de José
TTITLE5=Senhor
TTITLE6=Meu Dengo
TTITLE7=Maria
TTITLE8=Onde Andará
TTITLE9=Anseios
TTITLE10=O Que Será de Mim Nesta Cidade
TTITLE11=Desespero de Uma Noite
TTITLE12=Rei dos Reis
TTITLE13=Dodói
TTITLE14=Meu Grande Bem
TTITLE15=Fantasia
TTITLE16=Esperança
TTITLE17=Pequeno Guerreiro
TTITLE18=Vá Com Deus
TTITLE19=Saudade
TTITLE20=Loucura
TTITLE21=Querido Velho
TTITLE22=Eterno Chorar
TTITLE23=Minha Vida
EXTD=dayvisondj@hotmail.com\nDayvison DJ Is Of Recife - PE - Brazil\n8690-4073
EXTT0=
EXTT1=
EXTT2=
EXTT3=
EXTT4=
EXTT5=
EXTT6=
EXTT7=
EXTT8=
EXTT9=
EXTT10=
EXTT11=
EXTT12=
EXTT13=
EXTT14=
EXTT15=
EXTT16=
EXTT17=
EXTT18=
EXTT19=
EXTT20=
EXTT21=
EXTT22=
EXTT23=
PLAYORDER=
